# xmcd CD database file
#
# Track frame offsets:
#	150
#	75185
#	115745
#	138390
#	153256
#	175620
#	209159
#	267533
#
# Disc length: 4110 seconds
#
# Revision: 0
# Processed by: cddbd v1.5.2PL0 Copyright (c) Steve Scherf et al.
# Submitted via: CDex 1.70beta2
#
DISCID=65100c08
DTITLE=William Hooker - Channels Of Consciousness
DYEAR=2010
DGENRE=Jazz
TTITLE0=The Unfolding
TTITLE1=Compelling Influences
TTITLE2=Thought and Intention
TTITLE3=Loer Interlude
TTITLE4=Character
TTITLE5=Conneted
TTITLE6=Three Hexagons
TTITLE7=Mother's History (untold)
EXTD=YEAR: 2010
EXTT0=
EXTT1=
EXTT2=
EXTT3=
EXTT4=
EXTT5=
EXTT6=
EXTT7=
PLAYORDER=
